<svg width="21" height="21" viewBox="0 0 21 21" fill="none" xmlns="http://www.w3.org/2000/svg">
<g filter="url(#filter0_d_49_35)">
<path d="M4.78599 4.226C4.81327 3.62983 4.90662 3.24534 5.03286 2.91897L5.03456 2.91446C5.15965 2.58235 5.35562 2.28149 5.60882 2.03281L5.61238 2.02932L5.61587 2.02577C5.86474 1.77224 6.16571 1.57646 6.49754 1.4517L6.50326 1.44951C6.82889 1.32288 7.21263 1.22988 7.80929 1.2026M4.78599 4.226C4.75731 4.86297 4.75 5.06042 4.75 6.71197C4.75 8.36385 4.75691 8.56084 4.78597 9.19796M4.78599 4.226V4.38667M7.80929 1.2026C8.44641 1.17353 8.6438 1.16663 10.2953 1.16663C11.9468 1.16663 12.1441 1.17393 12.7811 1.20261M7.80929 1.2026H7.97038M4.78597 9.19796C4.81325 9.79465 4.90625 10.1784 5.03289 10.504L5.03508 10.5098M4.78597 9.19796L4.79574 9.24941M4.78597 9.19796V9.0369M4.78599 4.38667C4.78822 4.33562 4.79062 4.28241 4.7932 4.22582C4.82309 3.57354 4.93398 3.19243 5.03967 2.92211C5.17646 2.56909 5.34974 2.3027 5.61447 2.03688C5.8661 1.77875 6.17199 1.57984 6.50998 1.45455C6.7791 1.35017 7.15921 1.23961 7.80903 1.20983C7.8658 1.20725 7.91917 1.20484 7.97038 1.2026M4.78599 4.38667C4.76238 4.92647 4.75731 5.22424 4.75731 6.71197C4.75731 8.19917 4.76238 8.49738 4.78597 9.0369M4.78599 4.38667L4.78597 9.0369M5.03508 10.5098C5.15984 10.8416 5.35562 11.1425 5.60914 11.3914L5.61269 11.3949L5.61617 11.3984C5.86486 11.6516 6.16573 11.8476 6.49785 11.9727L6.50281 11.9746C6.82873 12.101 7.21266 12.194 7.80929 12.2213M5.03508 10.5098L5.0276 10.4703M5.0276 10.4703L4.79574 9.24941M5.0276 10.4703C4.92912 10.2102 4.82773 9.84721 4.79574 9.24941M5.0276 10.4703C5.03105 10.4795 5.0345 10.4885 5.03795 10.4973C5.16282 10.834 5.36068 11.1388 5.61731 11.3899C5.86831 11.6465 6.17302 11.8443 6.50956 11.9692C6.77963 12.0744 7.16019 12.1843 7.8092 12.2141C8.46416 12.2439 8.66651 12.25 10.2953 12.25C11.9241 12.25 12.1267 12.2439 12.7816 12.2141C13.4314 12.1843 13.8115 12.0737 14.0807 11.9694C14.4174 11.8445 14.7223 11.6466 14.9733 11.3899C15.2299 11.1389 15.4277 10.8342 15.5526 10.4977C15.6578 10.2276 15.7677 9.84709 15.7974 9.19807C15.8272 8.54311 15.8334 8.34034 15.8334 6.71197C15.8334 5.08355 15.8272 4.88062 15.7974 4.22565C15.7675 3.57245 15.656 3.19177 15.5511 2.92241C15.414 2.5685 15.2402 2.30084 14.9729 2.03362C14.7062 1.76745 14.4393 1.5935 14.0851 1.45627C13.8148 1.35059 13.4339 1.23972 12.7816 1.20983C12.7249 1.20725 12.6716 1.20485 12.6204 1.20261M4.79574 9.24941C4.79484 9.23255 4.79399 9.21552 4.7932 9.19825C4.79062 9.14149 4.78821 9.08812 4.78597 9.0369M12.6204 1.20261H12.7811M12.6204 1.20261L7.97038 1.2026M12.6204 1.20261C12.0808 1.17902 11.7827 1.17394 10.2953 1.17394C8.80807 1.17394 8.50988 1.17901 7.97038 1.2026M12.7811 1.20261C13.3773 1.22988 13.7619 1.32322 14.0883 1.44947L14.0928 1.45118C14.4249 1.57628 14.7258 1.77225 14.9745 2.02545L14.9779 2.02897L14.9815 2.03242C15.2347 2.28111 15.4306 2.58206 15.5556 2.91427L15.5577 2.91989C15.6844 3.24551 15.7774 3.62925 15.8047 4.22592M15.8047 9.19796C15.7774 9.79459 15.6844 10.1785 15.558 10.5044L15.5561 10.5094C15.431 10.8416 15.235 11.1424 14.9818 11.3911L14.9782 11.3946L14.9748 11.3981C14.7259 11.6516 14.425 11.8474 14.0931 11.9722L14.0874 11.9744C13.7618 12.101 13.378 12.194 12.7814 12.2213M9.30906 9.09302C9.62173 9.22252 9.95685 9.28919 10.2953 9.28919C10.9789 9.28919 11.6344 9.01765 12.1178 8.53436C12.601 8.05101 12.8726 7.39546 12.8726 6.71197C12.8726 6.02842 12.601 5.37288 12.1178 4.88955C11.6344 4.40622 10.9789 4.13468 10.2953 4.13468C9.95685 4.13468 9.62173 4.20135 9.30906 4.33087C8.99633 4.46039 8.71224 4.65023 8.47293 4.88955C8.23361 5.12887 8.04377 5.41298 7.91424 5.72567C7.78473 6.03833 7.71806 6.37352 7.71806 6.71197C7.71806 7.05042 7.78473 7.38554 7.91424 7.69821C8.04377 8.01093 8.23361 8.29502 8.47293 8.53436C8.71224 8.77364 8.99633 8.96352 9.30906 9.09302ZM8.46719 4.88381C8.95206 4.39895 9.60965 4.12656 10.2953 4.12656C10.981 4.12656 11.6386 4.39895 12.1235 4.88381C12.6083 5.36866 12.8807 6.02626 12.8807 6.71197C12.8807 7.39762 12.6083 8.05521 12.1235 8.54007C11.6386 9.02494 10.981 9.2973 10.2953 9.2973C9.60965 9.2973 8.95206 9.02494 8.46719 8.54007C7.98233 8.05521 7.70994 7.39762 7.70994 6.71197C7.70994 6.02626 7.98233 5.36866 8.46719 4.88381ZM14.3365 3.52463C14.3365 3.72088 14.2585 3.9091 14.1198 4.04788C13.981 4.18665 13.7928 4.26462 13.5966 4.26462C13.4003 4.26462 13.2121 4.18665 13.0733 4.04788C12.9345 3.9091 12.8565 3.72088 12.8565 3.52463C12.8565 3.32837 12.9345 3.14015 13.0733 3.00138C13.2121 2.86261 13.4003 2.78465 13.5966 2.78465C13.7928 2.78465 13.981 2.86261 14.1198 3.00138C14.2585 3.14015 14.3365 3.32837 14.3365 3.52463Z" stroke="white" stroke-width="0.5" stroke-linejoin="round"/>
</g>
<defs>
<filter id="filter0_d_49_35" x="-1" y="0" width="22" height="22" filterUnits="userSpaceOnUse" color-interpolation-filters="sRGB">
<feFlood flood-opacity="0" result="BackgroundImageFix"/>
<feColorMatrix in="SourceAlpha" type="matrix" values="0 0 0 0 0 0 0 0 0 0 0 0 0 0 0 0 0 0 127 0" result="hardAlpha"/>
<feOffset dy="4"/>
<feGaussianBlur stdDeviation="2"/>
<feComposite in2="hardAlpha" operator="out"/>
<feColorMatrix type="matrix" values="0 0 0 0 0 0 0 0 0 0 0 0 0 0 0 0 0 0 0.25 0"/>
<feBlend mode="normal" in2="BackgroundImageFix" result="effect1_dropShadow_49_35"/>
<feBlend mode="normal" in="SourceGraphic" in2="effect1_dropShadow_49_35" result="shape"/>
</filter>
</defs>
</svg>
