<svg width="108" height="48" viewBox="0 0 108 48" fill="none" xmlns="http://www.w3.org/2000/svg">
<path d="M8.9 8.148H11.492V13.062H14.516V8.148H17.108V21H14.516V15.294H11.492V21H8.9V8.148ZM20.846 21.198C20.414 21.198 20.048 21.12 19.748 20.964C19.448 20.808 19.208 20.604 19.028 20.352C18.848 20.088 18.716 19.794 18.632 19.47C18.548 19.146 18.506 18.816 18.506 18.48C18.506 18.024 18.554 17.634 18.65 17.31C18.746 16.974 18.89 16.692 19.082 16.464C19.286 16.224 19.538 16.026 19.838 15.87C20.15 15.714 20.522 15.576 20.954 15.456L22.358 15.078C22.73 14.982 22.988 14.85 23.132 14.682C23.276 14.514 23.348 14.268 23.348 13.944C23.348 13.572 23.258 13.284 23.078 13.08C22.91 12.864 22.616 12.756 22.196 12.756C21.812 12.756 21.524 12.87 21.332 13.098C21.14 13.326 21.044 13.632 21.044 14.016V14.286H18.812V14.052C18.812 13.5 18.902 13.032 19.082 12.648C19.262 12.264 19.502 11.958 19.802 11.73C20.114 11.49 20.474 11.322 20.882 11.226C21.302 11.118 21.746 11.064 22.214 11.064C22.946 11.064 23.54 11.136 23.996 11.28C24.464 11.424 24.824 11.628 25.076 11.892C25.328 12.156 25.496 12.474 25.58 12.846C25.676 13.206 25.724 13.602 25.724 14.034V19.128C25.724 19.584 25.742 19.938 25.778 20.19C25.826 20.442 25.91 20.712 26.03 21H23.654C23.57 20.844 23.504 20.682 23.456 20.514C23.42 20.334 23.384 20.16 23.348 19.992H23.312C23.024 20.496 22.688 20.826 22.304 20.982C21.932 21.126 21.446 21.198 20.846 21.198ZM21.818 19.56C21.986 19.56 22.16 19.536 22.34 19.488C22.52 19.428 22.682 19.338 22.826 19.218C22.982 19.098 23.108 18.948 23.204 18.768C23.3 18.576 23.348 18.342 23.348 18.066V16.158C23.18 16.29 23 16.398 22.808 16.482C22.616 16.554 22.442 16.608 22.286 16.644C21.782 16.752 21.422 16.932 21.206 17.184C20.99 17.436 20.882 17.778 20.882 18.21C20.882 18.582 20.954 18.9 21.098 19.164C21.242 19.428 21.482 19.56 21.818 19.56ZM31.006 21.198C30.178 21.198 29.518 21.042 29.026 20.73C28.546 20.418 28.18 19.992 27.928 19.452C27.676 18.9 27.514 18.252 27.442 17.508C27.382 16.764 27.352 15.966 27.352 15.114C27.352 14.31 27.394 13.524 27.478 12.756C27.574 11.988 27.754 11.292 28.018 10.668C28.282 10.032 28.642 9.504 29.098 9.084C29.566 8.652 30.172 8.382 30.916 8.274C31.528 8.178 31.984 8.094 32.284 8.022C32.584 7.95 32.758 7.83 32.806 7.662H34.66C34.66 8.166 34.594 8.58 34.462 8.904C34.33 9.216 34.138 9.462 33.886 9.642C33.646 9.822 33.34 9.954 32.968 10.038C32.608 10.122 32.194 10.188 31.726 10.236C31.234 10.284 30.808 10.362 30.448 10.47C30.088 10.578 29.788 10.746 29.548 10.974C29.32 11.19 29.14 11.478 29.008 11.838C28.876 12.186 28.792 12.636 28.756 13.188H28.828C28.936 12.864 29.086 12.588 29.278 12.36C29.482 12.12 29.704 11.928 29.944 11.784C30.184 11.628 30.442 11.514 30.718 11.442C30.994 11.37 31.27 11.334 31.546 11.334C32.194 11.334 32.734 11.46 33.166 11.712C33.598 11.952 33.94 12.288 34.192 12.72C34.456 13.152 34.642 13.668 34.75 14.268C34.858 14.868 34.912 15.528 34.912 16.248C34.912 16.992 34.858 17.67 34.75 18.282C34.642 18.882 34.444 19.398 34.156 19.83C33.868 20.262 33.472 20.598 32.968 20.838C32.464 21.078 31.81 21.198 31.006 21.198ZM31.114 19.56C31.366 19.56 31.576 19.506 31.744 19.398C31.912 19.29 32.044 19.11 32.14 18.858C32.248 18.594 32.32 18.252 32.356 17.832C32.404 17.4 32.428 16.866 32.428 16.23C32.428 15.57 32.404 15.03 32.356 14.61C32.308 14.19 32.236 13.86 32.14 13.62C32.044 13.368 31.912 13.194 31.744 13.098C31.576 13.002 31.378 12.954 31.15 12.954C30.91 12.954 30.706 13.008 30.538 13.116C30.37 13.212 30.232 13.392 30.124 13.656C30.028 13.908 29.956 14.25 29.908 14.682C29.86 15.114 29.836 15.66 29.836 16.32C29.836 17.496 29.926 18.33 30.106 18.822C30.286 19.314 30.622 19.56 31.114 19.56ZM39.6339 21.198C38.7339 21.198 38.0319 21.048 37.5279 20.748C37.0239 20.436 36.6519 20.04 36.4119 19.56C36.1719 19.068 36.0219 18.516 35.9619 17.904C35.9139 17.292 35.8899 16.68 35.8899 16.068C35.8899 15.42 35.9319 14.796 36.0159 14.196C36.1119 13.596 36.2919 13.062 36.5559 12.594C36.8319 12.126 37.2219 11.754 37.7259 11.478C38.2299 11.202 38.9019 11.064 39.7419 11.064C40.4619 11.064 41.0499 11.184 41.5059 11.424C41.9739 11.652 42.3399 11.982 42.6039 12.414C42.8679 12.834 43.0479 13.35 43.1439 13.962C43.2399 14.562 43.2879 15.234 43.2879 15.978V16.536H38.3739V17.31C38.3739 17.598 38.3919 17.88 38.4279 18.156C38.4759 18.42 38.5479 18.66 38.6439 18.876C38.7399 19.08 38.8659 19.248 39.0219 19.38C39.1779 19.5 39.3699 19.56 39.5979 19.56C40.0179 19.56 40.3239 19.41 40.5159 19.11C40.7079 18.81 40.8399 18.354 40.9119 17.742H43.1439C43.0959 18.87 42.7959 19.728 42.2439 20.316C41.7039 20.904 40.8339 21.198 39.6339 21.198ZM40.9119 15.06C40.8999 14.688 40.8759 14.364 40.8399 14.088C40.8039 13.8 40.7379 13.56 40.6419 13.368C40.5579 13.164 40.4319 13.014 40.2639 12.918C40.1079 12.81 39.9039 12.756 39.6519 12.756C39.3999 12.756 39.1899 12.816 39.0219 12.936C38.8659 13.044 38.7399 13.194 38.6439 13.386C38.5479 13.566 38.4759 13.77 38.4279 13.998C38.3919 14.226 38.3739 14.454 38.3739 14.682V15.06H40.9119ZM44.5819 11.316H46.9579V12.342H46.9939C47.2699 11.886 47.5759 11.562 47.9119 11.37C48.2599 11.166 48.6859 11.064 49.1899 11.064C50.2099 11.064 50.9599 11.466 51.4399 12.27C51.9199 13.062 52.1599 14.358 52.1599 16.158C52.1599 17.958 51.9199 19.248 51.4399 20.028C50.9599 20.808 50.2099 21.198 49.1899 21.198C48.7219 21.198 48.3199 21.114 47.9839 20.946C47.6599 20.766 47.3659 20.484 47.1019 20.1H47.0659V24.114H44.5819V11.316ZM48.3799 19.344C48.9199 19.344 49.2679 19.08 49.4239 18.552C49.5919 18.012 49.6759 17.214 49.6759 16.158C49.6759 15.102 49.5919 14.31 49.4239 13.782C49.2679 13.242 48.9199 12.972 48.3799 12.972C47.8279 12.972 47.4679 13.242 47.2999 13.782C47.1439 14.31 47.0659 15.102 47.0659 16.158C47.0659 17.214 47.1439 18.012 47.2999 18.552C47.4679 19.08 47.8279 19.344 48.3799 19.344ZM56.9659 21.198C56.0659 21.198 55.3639 21.048 54.8599 20.748C54.3559 20.436 53.9839 20.04 53.7439 19.56C53.5039 19.068 53.3539 18.516 53.2939 17.904C53.2459 17.292 53.2219 16.68 53.2219 16.068C53.2219 15.42 53.2639 14.796 53.3479 14.196C53.4439 13.596 53.6239 13.062 53.8879 12.594C54.1639 12.126 54.5539 11.754 55.0579 11.478C55.5619 11.202 56.2339 11.064 57.0739 11.064C57.7939 11.064 58.3819 11.184 58.8379 11.424C59.3059 11.652 59.6719 11.982 59.9359 12.414C60.1999 12.834 60.3799 13.35 60.4759 13.962C60.5719 14.562 60.6199 15.234 60.6199 15.978V16.536H55.7059V17.31C55.7059 17.598 55.7239 17.88 55.7599 18.156C55.8079 18.42 55.8799 18.66 55.9759 18.876C56.0719 19.08 56.1979 19.248 56.3539 19.38C56.5099 19.5 56.7019 19.56 56.9299 19.56C57.3499 19.56 57.6559 19.41 57.8479 19.11C58.0399 18.81 58.1719 18.354 58.2439 17.742H60.4759C60.4279 18.87 60.1279 19.728 59.5759 20.316C59.0359 20.904 58.1659 21.198 56.9659 21.198ZM58.2439 15.06C58.2319 14.688 58.2079 14.364 58.1719 14.088C58.1359 13.8 58.0699 13.56 57.9739 13.368C57.8899 13.164 57.7639 13.014 57.5959 12.918C57.4399 12.81 57.2359 12.756 56.9839 12.756C56.7319 12.756 56.5219 12.816 56.3539 12.936C56.1979 13.044 56.0719 13.194 55.9759 13.386C55.8799 13.566 55.8079 13.77 55.7599 13.998C55.7239 14.226 55.7059 14.454 55.7059 14.682V15.06H58.2439ZM63.8219 15.24L61.2479 11.316H63.7679L66.1619 15.24V11.316H68.5379V15.24L70.9319 11.316H73.4519L70.8779 15.24L73.6679 21H71.1299L69.3659 17.094L68.5379 18.318V21H66.1619V18.318L65.3339 17.094L63.5699 21H61.0319L63.8219 15.24ZM74.4471 11.316H76.9311V14.898H79.3071V11.316H81.7911V21H79.3071V16.878H76.9311V21H74.4471V11.316ZM85.4631 21.198C85.0311 21.198 84.6651 21.12 84.3651 20.964C84.0651 20.808 83.8251 20.604 83.6451 20.352C83.4651 20.088 83.3331 19.794 83.2491 19.47C83.1651 19.146 83.1231 18.816 83.1231 18.48C83.1231 18.024 83.1711 17.634 83.2671 17.31C83.3631 16.974 83.5071 16.692 83.6991 16.464C83.9031 16.224 84.1551 16.026 84.4551 15.87C84.7671 15.714 85.1391 15.576 85.5711 15.456L86.9751 15.078C87.3471 14.982 87.6051 14.85 87.7491 14.682C87.8931 14.514 87.9651 14.268 87.9651 13.944C87.9651 13.572 87.8751 13.284 87.6951 13.08C87.5271 12.864 87.2331 12.756 86.8131 12.756C86.4291 12.756 86.1411 12.87 85.9491 13.098C85.7571 13.326 85.6611 13.632 85.6611 14.016V14.286H83.4291V14.052C83.4291 13.5 83.5191 13.032 83.6991 12.648C83.8791 12.264 84.1191 11.958 84.4191 11.73C84.7311 11.49 85.0911 11.322 85.4991 11.226C85.9191 11.118 86.3631 11.064 86.8311 11.064C87.5631 11.064 88.1571 11.136 88.6131 11.28C89.0811 11.424 89.4411 11.628 89.6931 11.892C89.9451 12.156 90.1131 12.474 90.1971 12.846C90.2931 13.206 90.3411 13.602 90.3411 14.034V19.128C90.3411 19.584 90.3591 19.938 90.3951 20.19C90.4431 20.442 90.5271 20.712 90.6471 21H88.2711C88.1871 20.844 88.1211 20.682 88.0731 20.514C88.0371 20.334 88.0011 20.16 87.9651 19.992H87.9291C87.6411 20.496 87.3051 20.826 86.9211 20.982C86.5491 21.126 86.0631 21.198 85.4631 21.198ZM86.4351 19.56C86.6031 19.56 86.7771 19.536 86.9571 19.488C87.1371 19.428 87.2991 19.338 87.4431 19.218C87.5991 19.098 87.7251 18.948 87.8211 18.768C87.9171 18.576 87.9651 18.342 87.9651 18.066V16.158C87.7971 16.29 87.6171 16.398 87.4251 16.482C87.2331 16.554 87.0591 16.608 86.9031 16.644C86.3991 16.752 86.0391 16.932 85.8231 17.184C85.6071 17.436 85.4991 17.778 85.4991 18.21C85.4991 18.582 85.5711 18.9 85.7151 19.164C85.8591 19.428 86.0991 19.56 86.4351 19.56ZM93.5712 17.166C93.0072 16.962 92.5632 16.632 92.2392 16.176C91.9272 15.72 91.7712 15.126 91.7712 14.394C91.7712 13.326 92.0652 12.546 92.6532 12.054C93.2532 11.562 94.0392 11.316 95.0112 11.316H99.0972V21H96.6312V17.418H95.9472L94.1832 21H91.3392L93.5712 17.166ZM96.6492 15.654V13.098H95.6412C95.1492 13.098 94.7832 13.2 94.5432 13.404C94.3032 13.608 94.1832 13.938 94.1832 14.394C94.1832 14.85 94.2912 15.174 94.5072 15.366C94.7232 15.558 95.0592 15.654 95.5152 15.654H96.6492ZM8.9 28.148H17.108V41H14.516V30.272H11.492V41H8.9V28.148ZM22.322 41.198C21.578 41.198 20.96 41.096 20.468 40.892C19.976 40.688 19.586 40.376 19.298 39.956C19.01 39.536 18.806 39.014 18.686 38.39C18.566 37.754 18.506 37.01 18.506 36.158C18.506 35.33 18.572 34.598 18.704 33.962C18.836 33.326 19.052 32.798 19.352 32.378C19.652 31.946 20.042 31.622 20.522 31.406C21.014 31.178 21.614 31.064 22.322 31.064C23.066 31.064 23.684 31.172 24.176 31.388C24.668 31.604 25.058 31.922 25.346 32.342C25.634 32.762 25.838 33.296 25.958 33.944C26.078 34.58 26.138 35.318 26.138 36.158C26.138 36.998 26.072 37.736 25.94 38.372C25.808 38.996 25.592 39.518 25.292 39.938C24.992 40.358 24.596 40.676 24.104 40.892C23.624 41.096 23.03 41.198 22.322 41.198ZM22.322 39.56C22.826 39.56 23.174 39.296 23.366 38.768C23.558 38.24 23.654 37.37 23.654 36.158C23.654 34.946 23.558 34.076 23.366 33.548C23.174 33.02 22.826 32.756 22.322 32.756C22.01 32.756 21.764 32.84 21.584 33.008C21.416 33.176 21.284 33.41 21.188 33.71C21.104 34.01 21.05 34.37 21.026 34.79C21.002 35.21 20.99 35.666 20.99 36.158C20.99 36.65 21.002 37.106 21.026 37.526C21.05 37.946 21.104 38.306 21.188 38.606C21.284 38.906 21.416 39.14 21.584 39.308C21.764 39.476 22.01 39.56 22.322 39.56ZM27.4784 31.316H29.9624V35.312L32.5184 31.316H35.2184L32.4464 35.33L35.6144 41H32.8604L30.9164 37.256L29.9624 38.588V41H27.4784V31.316ZM36.3905 31.316H38.7665V32.342H38.8025C39.0785 31.886 39.3845 31.562 39.7205 31.37C40.0685 31.166 40.4945 31.064 40.9985 31.064C42.0185 31.064 42.7685 31.466 43.2485 32.27C43.7285 33.062 43.9685 34.358 43.9685 36.158C43.9685 37.958 43.7285 39.248 43.2485 40.028C42.7685 40.808 42.0185 41.198 40.9985 41.198C40.5305 41.198 40.1285 41.114 39.7925 40.946C39.4685 40.766 39.1745 40.484 38.9105 40.1H38.8745V44.114H36.3905V31.316ZM40.1885 39.344C40.7285 39.344 41.0765 39.08 41.2325 38.552C41.4005 38.012 41.4845 37.214 41.4845 36.158C41.4845 35.102 41.4005 34.31 41.2325 33.782C41.0765 33.242 40.7285 32.972 40.1885 32.972C39.6365 32.972 39.2765 33.242 39.1085 33.782C38.9525 34.31 38.8745 35.102 38.8745 36.158C38.8745 37.214 38.9525 38.012 39.1085 38.552C39.2765 39.08 39.6365 39.344 40.1885 39.344ZM48.8825 41.198C48.1385 41.198 47.5205 41.096 47.0285 40.892C46.5365 40.688 46.1465 40.376 45.8585 39.956C45.5705 39.536 45.3665 39.014 45.2465 38.39C45.1265 37.754 45.0665 37.01 45.0665 36.158C45.0665 35.33 45.1325 34.598 45.2645 33.962C45.3965 33.326 45.6125 32.798 45.9125 32.378C46.2125 31.946 46.6025 31.622 47.0825 31.406C47.5745 31.178 48.1745 31.064 48.8825 31.064C49.6265 31.064 50.2445 31.172 50.7365 31.388C51.2285 31.604 51.6185 31.922 51.9065 32.342C52.1945 32.762 52.3985 33.296 52.5185 33.944C52.6385 34.58 52.6985 35.318 52.6985 36.158C52.6985 36.998 52.6325 37.736 52.5005 38.372C52.3685 38.996 52.1525 39.518 51.8525 39.938C51.5525 40.358 51.1565 40.676 50.6645 40.892C50.1845 41.096 49.5905 41.198 48.8825 41.198ZM48.8825 39.56C49.3865 39.56 49.7345 39.296 49.9265 38.768C50.1185 38.24 50.2145 37.37 50.2145 36.158C50.2145 34.946 50.1185 34.076 49.9265 33.548C49.7345 33.02 49.3865 32.756 48.8825 32.756C48.5705 32.756 48.3245 32.84 48.1445 33.008C47.9765 33.176 47.8445 33.41 47.7485 33.71C47.6645 34.01 47.6105 34.37 47.5865 34.79C47.5625 35.21 47.5505 35.666 47.5505 36.158C47.5505 36.65 47.5625 37.106 47.5865 37.526C47.6105 37.946 47.6645 38.306 47.7485 38.606C47.8445 38.906 47.9765 39.14 48.1445 39.308C48.3245 39.476 48.5705 39.56 48.8825 39.56ZM54.0389 31.316H58.1249C58.5449 31.316 58.9349 31.358 59.2949 31.442C59.6549 31.526 59.9609 31.67 60.2129 31.874C60.4769 32.066 60.6809 32.318 60.8249 32.63C60.9689 32.942 61.0409 33.32 61.0409 33.764C61.0409 34.292 60.9149 34.748 60.6629 35.132C60.4229 35.504 60.0509 35.756 59.5469 35.888C60.7349 36.14 61.3289 36.926 61.3289 38.246C61.3289 38.786 61.2449 39.236 61.0769 39.596C60.9209 39.944 60.6929 40.226 60.3929 40.442C60.1049 40.646 59.7569 40.79 59.3489 40.874C58.9529 40.958 58.5209 41 58.0529 41H54.0389V31.316ZM57.4589 39.272C57.9149 39.272 58.2629 39.194 58.5029 39.038C58.7429 38.87 58.8629 38.534 58.8629 38.03C58.8629 37.538 58.7489 37.208 58.5209 37.04C58.3049 36.872 57.9509 36.788 57.4589 36.788H56.4869V39.272H57.4589ZM57.0989 35.168C57.3269 35.168 57.5369 35.162 57.7289 35.15C57.9209 35.126 58.0829 35.078 58.2149 35.006C58.3469 34.934 58.4489 34.832 58.5209 34.7C58.5929 34.556 58.6289 34.358 58.6289 34.106C58.6289 33.866 58.5929 33.68 58.5209 33.548C58.4489 33.404 58.3469 33.296 58.2149 33.224C58.0829 33.152 57.9209 33.11 57.7289 33.098C57.5369 33.074 57.3209 33.062 57.0809 33.062H56.4869V35.168H57.0989ZM66.1233 41.198C65.4993 41.198 64.9533 41.12 64.4853 40.964C64.0293 40.808 63.6453 40.538 63.3333 40.154C63.0333 39.77 62.8053 39.254 62.6493 38.606C62.4933 37.958 62.4153 37.142 62.4153 36.158C62.4153 35.162 62.5113 34.34 62.7033 33.692C62.8953 33.032 63.1653 32.51 63.5133 32.126C63.8613 31.73 64.2753 31.454 64.7553 31.298C65.2353 31.142 65.7633 31.064 66.3393 31.064C67.4913 31.064 68.3553 31.4 68.9313 32.072C69.5193 32.744 69.8133 33.656 69.8133 34.808H67.4373C67.4373 34.58 67.4193 34.352 67.3833 34.124C67.3593 33.884 67.3053 33.674 67.2213 33.494C67.1493 33.302 67.0353 33.152 66.8793 33.044C66.7353 32.924 66.5493 32.864 66.3213 32.864C66.0093 32.864 65.7573 32.936 65.5653 33.08C65.3853 33.212 65.2473 33.416 65.1513 33.692C65.0553 33.956 64.9893 34.298 64.9533 34.718C64.9173 35.138 64.8993 35.624 64.8993 36.176C64.8993 36.776 64.9173 37.292 64.9533 37.724C64.9893 38.144 65.0553 38.492 65.1513 38.768C65.2473 39.044 65.3793 39.248 65.5473 39.38C65.7273 39.5 65.9553 39.56 66.2313 39.56C66.6513 39.56 66.9573 39.38 67.1493 39.02C67.3413 38.66 67.4373 38.084 67.4373 37.292H69.8133C69.8133 38.564 69.5253 39.536 68.9493 40.208C68.3853 40.868 67.4433 41.198 66.1233 41.198ZM71.1073 31.316H73.5913V35.312L76.1473 31.316H78.8473L76.0753 35.33L79.2433 41H76.4893L74.5453 37.256L73.5913 38.588V41H71.1073V31.316ZM82.0354 41.198C81.6034 41.198 81.2374 41.12 80.9374 40.964C80.6374 40.808 80.3974 40.604 80.2174 40.352C80.0374 40.088 79.9054 39.794 79.8214 39.47C79.7374 39.146 79.6954 38.816 79.6954 38.48C79.6954 38.024 79.7434 37.634 79.8394 37.31C79.9354 36.974 80.0794 36.692 80.2714 36.464C80.4754 36.224 80.7274 36.026 81.0274 35.87C81.3394 35.714 81.7114 35.576 82.1434 35.456L83.5474 35.078C83.9194 34.982 84.1774 34.85 84.3214 34.682C84.4654 34.514 84.5374 34.268 84.5374 33.944C84.5374 33.572 84.4474 33.284 84.2674 33.08C84.0994 32.864 83.8054 32.756 83.3854 32.756C83.0014 32.756 82.7134 32.87 82.5214 33.098C82.3294 33.326 82.2334 33.632 82.2334 34.016V34.286H80.0014V34.052C80.0014 33.5 80.0914 33.032 80.2714 32.648C80.4514 32.264 80.6914 31.958 80.9914 31.73C81.3034 31.49 81.6634 31.322 82.0714 31.226C82.4914 31.118 82.9354 31.064 83.4034 31.064C84.1354 31.064 84.7294 31.136 85.1854 31.28C85.6534 31.424 86.0134 31.628 86.2654 31.892C86.5174 32.156 86.6854 32.474 86.7694 32.846C86.8654 33.206 86.9134 33.602 86.9134 34.034V39.128C86.9134 39.584 86.9314 39.938 86.9674 40.19C87.0154 40.442 87.0994 40.712 87.2194 41H84.8434C84.7594 40.844 84.6934 40.682 84.6454 40.514C84.6094 40.334 84.5734 40.16 84.5374 39.992H84.5014C84.2134 40.496 83.8774 40.826 83.4934 40.982C83.1214 41.126 82.6354 41.198 82.0354 41.198ZM83.0074 39.56C83.1754 39.56 83.3494 39.536 83.5294 39.488C83.7094 39.428 83.8714 39.338 84.0154 39.218C84.1714 39.098 84.2974 38.948 84.3934 38.768C84.4894 38.576 84.5374 38.342 84.5374 38.066V36.158C84.3694 36.29 84.1894 36.398 83.9974 36.482C83.8054 36.554 83.6314 36.608 83.4754 36.644C82.9714 36.752 82.6114 36.932 82.3954 37.184C82.1794 37.436 82.0714 37.778 82.0714 38.21C82.0714 38.582 82.1434 38.9 82.2874 39.164C82.4314 39.428 82.6714 39.56 83.0074 39.56Z" fill="white"/>
<rect x="1.5" y="1.5" width="105" height="45" stroke="white" stroke-width="3"/>
</svg>
