<svg width="16" height="16" viewBox="0 0 16 16" fill="none" xmlns="http://www.w3.org/2000/svg">
<path d="M0.000714031 3.99447C0.000714031 4.66426 0.246341 5.40045 0.558372 6.18164C0.870403 6.96282 1.2724 7.69902 1.58515 8.25671C2.43342 9.72982 3.5266 11.1801 4.77615 12.3847C6.02571 13.5893 7.49875 14.594 9.14959 15.1967C10.1092 15.5758 11.0689 16 12.1399 16C12.6755 16 13.4345 15.7993 14.1257 15.5087C14.7954 15.2188 15.3974 14.7725 15.6208 14.237C15.7101 14.0363 15.8215 13.7686 15.8886 13.4558C15.9557 13.1659 16 12.8753 16 12.6746C16 12.5632 16 12.4511 15.9779 12.429C15.9107 12.2947 15.7544 12.1833 15.5759 12.0719C15.1739 11.8713 15.1075 11.8042 14.5048 11.4471C13.88 11.0901 13.2331 10.6881 12.6748 10.3982C12.407 10.2418 12.2285 10.1747 12.1614 10.1747C11.8044 10.1747 11.3581 10.666 10.9789 11.2015C10.5769 11.737 10.1307 12.2283 9.81864 12.2283C9.66226 12.2283 9.50589 12.1612 9.32738 12.0498C9.14888 11.9384 8.97037 11.8492 8.85898 11.782C6.8954 10.666 5.57872 9.34994 4.46341 7.4084C4.32917 7.1849 4.01714 6.71647 4.01714 6.47084C4.01714 6.18093 4.41914 5.84603 4.82042 5.489C5.19957 5.1541 5.60157 4.7528 5.60157 4.26153C5.60157 4.1944 5.55659 3.99375 5.46733 3.70384C5.26669 3.12331 4.99893 2.45423 4.77544 1.80729C4.66405 1.49453 4.57479 1.27175 4.55195 1.16035C4.50696 1.09323 4.48483 1.00397 4.46269 0.892578C4.44056 0.781184 4.39557 0.691927 4.37344 0.602669C4.30632 0.402017 4.19493 0.245637 4.08354 0.15638C3.97215 0.111394 3.70439 0.0449857 3.43663 0.0221357C3.16887 0.0221357 2.85612 0 2.7226 0C2.65548 0 2.56623 -2.42068e-07 2.47697 0.0221357H2.18708C1.47305 0.334895 0.959657 0.9597 0.580507 1.6959C0.223492 2.4321 0 3.25827 0 3.99447H0.000714031Z" fill="white"/>
</svg>
