<svg width="17" height="17" viewBox="0 0 17 17" fill="none" xmlns="http://www.w3.org/2000/svg">
<path d="M2.04299 7.80338C2.04299 7.80338 7.83875 5.43205 9.84882 4.5971C10.6193 4.26312 13.2324 3.19434 13.2324 3.19434C13.2324 3.19434 14.4385 2.72684 14.338 3.8623C14.3044 4.32989 14.0364 5.9664 13.7684 7.73653C13.3664 10.2415 12.9309 12.9801 12.9309 12.9801C12.9309 12.9801 12.8639 13.7482 12.2944 13.8818C11.7248 14.0155 10.7868 13.4143 10.6193 13.2807C10.4853 13.1804 8.10676 11.6775 7.23578 10.9428C7.00123 10.7424 6.73322 10.3416 7.26925 9.87401C8.47527 8.77193 9.91585 7.40255 10.7868 6.53422C11.1888 6.13339 11.5909 5.19821 9.91585 6.33376C7.53726 7.97028 5.19215 9.50665 5.19215 9.50665C5.19215 9.50665 4.65621 9.84063 3.65117 9.54003C2.64613 9.23943 1.47358 8.83869 1.47358 8.83869C1.47358 8.83869 0.669619 8.33764 2.04317 7.80338H2.04299Z" stroke="white" stroke-width="0.5"/>
</svg>
